<svg width="98" height="71" fill="none" xmlns="http://www.w3.org/2000/svg"><path d="M30.888 70.536c-5.952 0-11.232-1.376-15.84-4.128-4.544-2.816-8.128-6.848-10.752-12.096C1.736 49 .456 42.696.456 35.4c0-7.296 1.28-13.568 3.84-18.816C6.92 11.272 10.504 7.24 15.048 4.488 19.656 1.672 24.936.264 30.888.264s11.2 1.408 15.744 4.224c4.608 2.752 8.192 6.784 10.752 12.096 2.624 5.248 3.936 11.52 3.936 18.816 0 7.296-1.312 13.6-3.936 18.912-2.56 5.248-6.144 9.28-10.752 12.096-4.544 2.752-9.792 4.128-15.744 4.128zm0-18.144c5.12 0 7.68-5.664 7.68-16.992 0-11.328-2.56-16.992-7.68-16.992-5.12 0-7.68 5.664-7.68 16.992 0 11.328 2.56 16.992 7.68 16.992zM97.859 1.8V69H75.203V18.888h-11.52V1.8H97.86z" fill="#EFF5F8"/></svg>